# xmcd
#
# Track frame offsets:
#	150
#	16789
#	31864
#	65351
#	103480
#	127980
#	152431
#	180093
#
# Disc length: 2881 seconds
#
# Revision: 0
# Processed by: cddbd v1.5.1PL0 Copyright (c) Steve Scherf et al.
# Submitted via: dBpowerAMP V4.0
#
DISCID=530b3f08
DTITLE=Allman Brothers Band - Pittsburgh, PA 07-26-03 CD1
DYEAR=2003
DGENRE=Southern Rock
TTITLE0=Trouble No More
TTITLE1=Midnight Rider
TTITLE2=Black Hearted Woman
TTITLE3=Rockin' Horse
TTITLE4=Heart of Stone
TTITLE5=Statesboro Blues
TTITLE6=Every Hungry Woman
TTITLE7=Worried Down With The Blues
EXTD=
EXTT0=
EXTT1=
EXTT2=
EXTT3=
EXTT4=
EXTT5=
EXTT6=
EXTT7=
PLAYORDER=
